<?xml version="1.0" encoding="utf-8"?>
<!-- Generator: Adobe Illustrator 24.0.1, SVG Export Plug-In . SVG Version: 6.00 Build 0)  -->
<svg version="1.2" baseProfile="tiny" id="Layer_1" xmlns="http://www.w3.org/2000/svg" xmlns:xlink="http://www.w3.org/1999/xlink"
	 x="0px" y="0px" viewBox="0 0 759.92 759.92" xml:space="preserve">
<g>
	<path fill="#FFCE67" d="M759.92,379.96c0,209.84-170.11,379.96-379.96,379.96C170.11,759.92,0,589.81,0,379.96
		C0,170.12,170.11,0,379.96,0C589.81,0,759.92,170.12,759.92,379.96z"/>
	<g>
		<path fill="#E0915F" d="M635.76,264.07H242.8l-0.49-0.81l-13.6-15.66l24.74-4.35l64.47-11.34l60.74-10.69l64.47-11.35l60.75-10.68
			l64.47-11.34l60.3-10.61l-0.08-0.49l-9.51-54l0.01,0l-0.98-5.52h-0.01l-0.57-3.24l-56.5,9.94l-60.75,10.69l-64.48,11.34
			l-60.73,10.69l-64.46,11.34l-60.75,10.68l-64.48,11.35l-14.12,2.48c-2.36-0.46-4.71-0.65-6.99-0.49l-15.18,1.03
			c-5.11,0.35-9.83,2.47-13.71,5.76l-10.74,1.89l-0.48,0.08l2.21,12.56c-0.6,2.32-0.94,4.75-0.94,7.24v84.9
			c0,8.52,3.68,16.1,9.39,20.98v1.82h2.42c2.97,1.96,6.33,3.27,9.94,3.69v301.63c0,8.6,6.96,15.57,15.57,15.57h442.39
			c8.59,0,15.56-6.97,15.56-15.57V331.35c0-1.04-0.11-2.06-0.3-3.05h15.36V264.07z"/>
	</g>
	<g>
		<g>
			<path fill="#2C2E36" d="M125.31,304.69c0-8.6,6.96-15.57,15.57-15.57h442.39c8.59,0,15.56,6.97,15.56,15.57v302.28
				c0,8.6-6.97,15.57-15.56,15.57H140.88c-8.6,0-15.57-6.97-15.57-15.57V304.69z"/>
			<rect x="180.14" y="557.66" fill="#FBE1BA" width="353.63" height="4.95"/>
			<rect x="438.03" y="562.61" fill="#FBE1BA" width="4.96" height="39.57"/>
			<rect x="270.93" y="562.61" fill="#FBE1BA" width="4.95" height="39.57"/>
			<path fill="#231F20" d="M358.15,345.6c-49.78,0-90.13,40.37-90.13,90.13c0,49.77,40.35,90.13,90.13,90.13
				c49.77,0,90.12-40.35,90.12-90.13C448.27,385.97,407.92,345.6,358.15,345.6z M358.15,513.71c-43.06,0-77.98-34.92-77.98-77.98
				c0-43.06,34.92-77.97,77.98-77.97c43.06,0,77.97,34.91,77.97,77.97C436.12,478.79,401.21,513.71,358.15,513.71z"/>
			<path fill="#FBE1BA" d="M269.66,435.73c0,48.8,39.7,88.49,88.5,88.49c48.79,0,88.49-39.7,88.49-88.49
				c0-48.8-39.69-88.49-88.49-88.49C309.36,347.23,269.66,386.93,269.66,435.73z M278.55,435.73c0-43.89,35.71-79.6,79.61-79.6
				c43.9,0,79.6,35.71,79.6,79.6c0,43.89-35.7,79.6-79.6,79.6C314.26,515.33,278.55,479.62,278.55,435.73z"/>
			<path fill="#525760" d="M583.27,300.96H140.88c-2.06,0-3.73,1.67-3.73,3.73v302.28c0,1.55,0.95,2.88,2.3,3.44
				c21.34-69.87,65.78-131.13,125.42-176.86c1.18-50.48,42.52-91.2,93.28-91.2c21.26,0,40.82,7.22,56.53,19.23
				c34.38-8.7,70.61-13.43,108.09-13.43c21.85,0,43.3,1.61,64.22,4.66v-48.11C587,302.63,585.31,300.96,583.27,300.96z"/>
			<path fill="#424242" d="M321.19,391.12c0-3.88,1.55-7.01,4.24-8.57c2.7-1.57,6.19-1.35,9.56,0.6l7,4.04
				c15.58-7.16,31.73-13.46,48.42-18.75c-9.78-4.71-20.69-7.42-32.26-7.42c-35.38,0-65.03,24.73-72.72,57.8
				c11.47-7.68,23.38-14.85,35.75-21.4C321.19,393.49,321.19,391.12,321.19,391.12z"/>
			<path fill="#231F20" d="M410.61,440.87c4.91-2.83,4.91-7.47,0-10.29l-29.71-17.16c-4.89-2.84-12.92-7.46-17.82-10.29
				l-29.72-17.16c-4.9-2.83-8.91-0.51-8.91,5.15v34.3c0,5.67,0,14.94,0,20.6v34.31c0,5.66,4.02,7.96,8.91,5.13l29.72-17.14
				c4.9-2.83,12.93-7.47,17.82-10.31L410.61,440.87z"/>
			<path fill="#FBE1BA" d="M327.88,386.78c-1.15,0.66-1.8,2.25-1.8,4.35v89.21c0,2.09,0.65,3.67,1.8,4.34
				c1.14,0.66,2.85,0.44,4.66-0.62l29.72-17.14l47.53-27.45c1.82-1.05,2.86-2.41,2.86-3.74c0-1.32-1.04-2.68-2.86-3.73l-77.25-44.6
				C330.74,386.33,329.03,386.12,327.88,386.78z"/>
			<path fill="#DEC5A5" d="M270.03,428.24c3.27-2.39,6.55-4.75,9.91-7.05c6.86-36.97,39.29-65.07,78.21-65.07
				c13.9,0,26.96,3.6,38.34,9.88c3.83-1.13,7.69-2.25,11.58-3.28c-14.22-9.76-31.41-15.49-49.92-15.49
				C311.88,347.23,273.86,382.94,270.03,428.24z"/>
			<path fill="#DEC5A5" d="M327.88,386.78c-1.15,0.66-1.8,2.25-1.8,4.35v2.79c3.18-1.6,6.38-3.18,9.61-4.71l-3.15-1.81
				C330.74,386.33,329.03,386.12,327.88,386.78z"/>
			<polygon fill="#FBE1BA" points="539.16,97.28 606.72,150.1 606.79,150.59 546.5,161.2 478.42,107.97 			"/>
			<polygon fill="#FBE1BA" points="288.74,141.33 356.8,194.56 296.06,205.25 228,152.01 			"/>
			<polygon fill="#FBE1BA" points="163.52,163.36 231.59,216.59 170.85,227.27 102.77,174.04 			"/>
			<polygon fill="#FBE1BA" points="413.94,119.3 482.02,172.53 421.27,183.21 353.21,129.99 			"/>
			<polygon fill="#2C2E36" points="595.66,87.34 606.72,150.1 539.16,97.28 			"/>
			<polygon fill="#2C2E36" points="478.42,107.97 546.5,161.2 482.02,172.53 413.94,119.3 			"/>
			<polygon fill="#2C2E36" points="353.21,129.99 421.27,183.21 356.8,194.56 288.74,141.33 			"/>
			<polygon fill="#2C2E36" points="228,152.01 296.06,205.25 231.59,216.59 163.52,163.36 			"/>
			<polygon fill="#2C2E36" points="102.29,174.13 102.77,174.04 170.85,227.27 113.43,237.37 			"/>
			<g>
				<polygon fill="#FFFCE8" points="542.75,99.98 548.69,104.63 487.95,115.32 482,110.67 				"/>
				<polygon fill="#FFFCE8" points="417.52,122.01 423.49,126.66 362.74,137.34 356.79,132.69 				"/>
				<polygon fill="#FFFCE8" points="292.33,144.03 298.27,148.68 237.52,159.36 231.59,154.72 				"/>
				<polygon fill="#EDEDEE" points="167.11,166.06 173.04,170.71 112.3,181.39 106.36,176.74 				"/>
			</g>
			<g>
				<polygon fill="#525760" points="596.24,90.58 597.22,96.1 548.69,104.63 542.75,99.98 				"/>
				<polygon fill="#525760" points="482,110.67 487.95,115.32 423.49,126.66 417.52,122.01 				"/>
				<polygon fill="#525760" points="356.79,132.69 362.74,137.34 298.27,148.68 292.33,144.03 				"/>
				<polygon fill="#525760" points="231.59,154.72 237.52,159.36 173.04,170.71 167.11,166.06 				"/>
				<polygon fill="#525760" points="112.3,181.39 103.85,182.88 102.87,177.36 106.36,176.74 				"/>
			</g>
			<polygon fill="#FBE1BA" points="170.31,237.41 112.95,301.14 112.95,301.64 174.18,301.64 231.98,237.41 			"/>
			<polygon fill="#FBE1BA" points="424.6,237.41 366.76,301.64 428.44,301.64 486.28,237.41 			"/>
			<polygon fill="#FBE1BA" points="551.72,237.41 493.91,301.64 555.58,301.64 613.4,237.41 			"/>
			<polygon fill="#FBE1BA" points="297.46,237.41 239.63,301.64 301.31,301.64 359.13,237.41 			"/>
			<polygon fill="#2C2E36" points="231.98,237.41 174.18,301.64 239.63,301.64 297.46,237.41 			"/>
			<polygon fill="#2C2E36" points="359.13,237.41 301.31,301.64 366.76,301.64 424.6,237.41 			"/>
			<polygon fill="#2C2E36" points="486.28,237.41 428.44,301.64 493.91,301.64 551.72,237.41 			"/>
			<polygon fill="#2C2E36" points="613.89,237.41 613.4,237.41 555.58,301.64 613.89,301.64 			"/>
			<g>
				<polygon fill="#EDEDEE" points="167.26,240.7 162.21,246.31 223.87,246.31 228.93,240.7 				"/>
				<polygon fill="#FFFCE8" points="294.4,240.7 289.35,246.31 351.02,246.31 356.07,240.7 				"/>
				<polygon fill="#FFFCE8" points="421.53,240.7 416.49,246.31 478.16,246.31 483.21,240.7 				"/>
				<polygon fill="#FFFCE8" points="548.67,240.7 543.61,246.31 605.29,246.31 610.34,240.7 				"/>
			</g>
			<g>
				<polygon fill="#525760" points="228.93,240.7 223.87,246.31 289.35,246.31 294.4,240.7 				"/>
				<polygon fill="#525760" points="356.07,240.7 351.02,246.31 416.49,246.31 421.53,240.7 				"/>
				<polygon fill="#525760" points="483.21,240.7 478.16,246.31 543.61,246.31 548.67,240.7 				"/>
				<polygon fill="#525760" points="605.29,246.31 613.89,246.31 613.89,240.7 610.34,240.7 				"/>
			</g>
			<g>
				<path fill="#525760" d="M142.15,165.36l-15.18,1.03c-13.05,0.89-23.66,13.25-23.66,27.54v84.9c0,14.7,10.93,26.66,24.39,26.66
					h77.68c13.45,0,24.4-11.96,24.4-26.66v-7.96c0-10.33-3.89-24.66-9.03-33.33l-0.56-0.94l-48.8-56.2l1.26,1.75
					C166.51,171.8,153.4,164.58,142.15,165.36z"/>
				<path fill="#2C2E36" d="M127.66,178.48c-7.29,0.5-13.29,7.45-13.29,15.44v84.9c0,8,6.01,14.54,13.32,14.54h77.68
					c7.32,0,13.31-6.54,13.31-14.54v-7.96c0-8-3.26-20.03-7.24-26.74l-48.09-55.39c-3.99-6.72-13.21-11.78-20.52-11.3L127.66,178.48
					z"/>
				<path fill="#CCAE8B" d="M147.9,200.39c0,5.33-3.97,9.65-8.85,9.65c-4.89,0-8.83-4.32-8.83-9.65c0-5.34,3.94-9.67,8.83-9.67
					C143.93,190.72,147.9,195.05,147.9,200.39z"/>
				<path fill="#CCAE8B" d="M147.9,273.05c0,5.34-3.97,9.66-8.85,9.66c-4.89,0-8.83-4.32-8.83-9.66c0-5.33,3.94-9.65,8.83-9.65
					C143.93,263.39,147.9,267.71,147.9,273.05z"/>
				<path fill="#CCAE8B" d="M206.57,273.05c0,5.34-3.96,9.66-8.83,9.66c-4.9,0-8.85-4.32-8.85-9.66c0-5.33,3.95-9.65,8.85-9.65
					C202.6,263.39,206.57,267.71,206.57,273.05z"/>
			</g>
			<rect x="180.14" y="315.57" fill="#FBE1BA" width="347.58" height="3.14"/>
		</g>
		<path fill="#FBE1BA" d="M142.3,198.78c0,2.68-1.91,4.85-4.26,4.85c-2.35,0-4.26-2.17-4.26-4.85c0-2.68,1.91-4.85,4.26-4.85
			C140.4,193.93,142.3,196.1,142.3,198.78z"/>
		<path fill="#FBE1BA" d="M141.42,271.37c0,2.23-1.58,4.04-3.52,4.04c-1.95,0-3.52-1.81-3.52-4.04c0-2.23,1.58-4.04,3.52-4.04
			C139.85,267.33,141.42,269.14,141.42,271.37z"/>
		<path fill="#FBE1BA" d="M200.52,271.23c0,2.21-1.79,4-4.01,4c-2.21,0-4.01-1.79-4.01-4c0-2.21,1.79-4.01,4.01-4.01
			C198.73,267.22,200.52,269.02,200.52,271.23z"/>
	</g>
</g>
</svg>
